<svg width="27" height="22" viewBox="0 0 27 22" fill="none" xmlns="http://www.w3.org/2000/svg">
<path d="M22.4993 7.23418C21.2504 2.11015 16.2086 -0.992853 11.2328 0.293259C7.35393 1.29357 4.53235 4.75042 4.2416 8.86053C4.2416 8.86053 4.2416 8.86734 4.23499 8.86734C1.47948 9.33687 -0.39056 12.018 0.065387 14.8556C0.468471 17.3802 2.59622 19.2311 5.08081 19.2175H8.45746C8.92662 19.2175 9.30327 18.8296 9.30327 18.3465C9.30327 17.8633 8.92662 17.4754 8.45746 17.4754H5.14688C3.2438 17.4754 1.67111 15.8831 1.71076 13.9301C1.75041 12.0452 3.2438 10.5277 5.08741 10.5277C5.55658 10.5277 5.93323 10.1398 5.93323 9.6567C5.92001 5.34924 9.31649 1.84476 13.5125 1.83795C17.1403 1.83115 20.2658 4.47823 20.9729 8.14603C21.039 8.51349 21.3297 8.79249 21.6931 8.84012C23.9993 9.18036 25.605 11.3783 25.2746 13.7532C24.9773 15.8831 23.213 17.4754 21.1182 17.4822H18.5874C18.1182 17.4822 17.7416 17.8701 17.7416 18.3533C17.7416 18.8364 18.1182 19.2243 18.5874 19.2243H21.1182C24.3826 19.2175 27.0191 16.4819 27.0059 13.1204C26.9927 10.3304 25.1359 7.90105 22.4993 7.23418Z" fill="white"/>
<path d="M12.9978 9.96928C12.8062 10.1802 12.6146 10.398 12.4163 10.6021C11.8348 11.2078 11.2533 11.8066 10.6652 12.4054C10.4075 12.6708 10.0639 12.6844 9.83262 12.453C9.59473 12.2149 9.59473 11.861 9.84583 11.5956C10.7181 10.6906 11.5837 9.78555 12.4692 8.90093C13.1366 8.24086 14.141 8.23405 14.8018 8.90093C15.6872 9.78555 16.5529 10.6906 17.4251 11.5956C17.6762 11.861 17.6762 12.2217 17.4449 12.453C17.2137 12.6844 16.8701 12.6708 16.6123 12.4122C15.8921 11.6773 15.1784 10.9356 14.4648 10.2006C14.3987 10.1326 14.326 10.0646 14.2071 9.94887C14.2071 10.119 14.2071 10.2211 14.2071 10.3231C14.2071 14.8688 14.2071 16.4203 14.2071 20.9659C14.2071 21.0748 14.2071 21.1836 14.2005 21.2925C14.174 21.5919 13.9361 21.8165 13.652 21.8233C13.3679 21.8301 13.1234 21.6123 13.0837 21.3129C13.0705 21.2109 13.0771 21.1088 13.0771 21.0135C13.0771 16.4475 13.0771 14.8756 13.0771 10.3095C13.0771 10.2075 13.0771 10.1122 13.0771 10.0101C13.0441 10.0033 13.0176 9.9897 12.9978 9.96928Z" fill="white"/>
<path d="M17.782 12.0447V12.0515C17.782 12.2488 17.7027 12.4325 17.5573 12.5754C17.2599 12.8749 16.8106 12.8544 16.4934 12.5278C16.0044 12.0311 15.5088 11.5207 15.0331 11.0308C14.8084 10.7994 14.5837 10.568 14.3657 10.3435V11.5615C14.3657 15.6921 14.3657 16.8353 14.3657 20.9658V21.027C14.3657 21.1155 14.3657 21.2108 14.359 21.306C14.326 21.6871 14.022 21.9865 13.652 21.9933C13.282 22.0001 12.9648 21.7211 12.9119 21.3333C12.8987 21.2448 12.8987 21.1563 12.9053 21.0747C12.9053 21.0543 12.9053 21.0338 12.9053 21.0066C12.9053 16.8965 12.9053 15.7805 12.9053 11.6772V10.3162C12.7864 10.4523 12.6608 10.5884 12.5353 10.7177C11.9141 11.3642 11.3392 11.9562 10.7842 12.521C10.467 12.8476 10.0176 12.8681 9.72028 12.5686C9.5749 12.4257 9.49561 12.2352 9.49561 12.0379C9.49561 11.8337 9.58151 11.6296 9.73349 11.4731L10.196 10.9899C10.9031 10.2618 11.63 9.49967 12.3568 8.77155C13.0903 8.04343 14.1938 8.04343 14.9207 8.76475C15.6939 9.53369 16.4604 10.3299 17.2005 11.0988L17.5507 11.4595C17.6961 11.6364 17.782 11.8405 17.782 12.0447ZM14.0353 11.5615V9.5473L14.3128 9.81949C14.3524 9.86032 14.3921 9.89435 14.4251 9.92837C14.4846 9.98961 14.5309 10.0304 14.5771 10.0781C14.8084 10.3162 15.0397 10.5544 15.2709 10.7926C15.7467 11.2825 16.2423 11.7929 16.7313 12.2896C16.9229 12.487 17.1608 12.5006 17.3326 12.3305C17.4119 12.2556 17.4516 12.1535 17.4516 12.0447C17.4516 11.929 17.4053 11.8065 17.3062 11.7112L16.956 11.3506C16.2159 10.5816 15.4494 9.78547 14.6828 9.02333C14.0815 8.4245 13.1762 8.43131 12.5749 9.02333C11.848 9.75145 11.1212 10.5068 10.4141 11.2349L9.95155 11.718C9.85904 11.8133 9.80618 11.929 9.80618 12.0447C9.80618 12.1535 9.85243 12.2488 9.93173 12.3305C10.0969 12.5006 10.3414 12.4802 10.5331 12.2896C11.0881 11.718 11.663 11.1328 12.2842 10.4864C12.4163 10.3435 12.5551 10.2006 12.6806 10.0577C12.7401 9.98961 12.7996 9.92157 12.859 9.86032L12.9516 9.75825L13.2159 9.92837V11.6908C13.2159 15.8009 13.2159 16.9169 13.2159 21.0202C13.2159 21.0406 13.2159 21.0679 13.2159 21.0951C13.2159 21.1699 13.2159 21.238 13.2225 21.2992C13.2489 21.5102 13.4273 21.6667 13.6256 21.6599C13.8304 21.6531 13.9956 21.4966 14.0154 21.2856C14.022 21.204 14.022 21.1223 14.022 21.0406V20.9726C14.0353 16.8353 14.0353 15.6921 14.0353 11.5615Z" fill="white"/>
</svg>
