<svg width="16" height="18" fill="none" xmlns="http://www.w3.org/2000/svg"><g clip-path="url(#prefix__a)" fill="#fff"><path d="M10.143 1.212a4.143 4.143 0 0 1 0 5.85 4.121 4.121 0 0 1-5.837 0 4.143 4.143 0 0 1 0-5.85 4.121 4.121 0 0 1 5.837 0zM14.072 11.764a3.639 3.639 0 0 0-3.397.976 3.66 3.66 0 0 0-.857 3.808H.702A.71.71 0 0 1 0 15.84v-2.88c0-.691.333-1.33.893-1.708 3.763-2.547 8.901-2.547 12.664 0 .203.142.377.313.515.512z"/><path d="M13.74 14.84v-.603a.127.127 0 0 0-.126-.126h-.723a.127.127 0 0 0-.126.126v.602h-.6a.127.127 0 0 0-.126.127v.724c0 .069.056.126.126.126h.6v.602c0 .069.057.126.126.126h.723a.127.127 0 0 0 .125-.126v-.602h.601a.12.12 0 0 0 .106-.061v.09c0 .39-.317.703-.703.703h-2.865a2.684 2.684 0 0 1 .487-3.116 2.661 2.661 0 0 1 1.887-.781c.41 0 .82.093 1.194.28V14.9a.12.12 0 0 0-.106-.06h-.6z"/><path d="M15.144 13.428a2.674 2.674 0 0 0-1.892-.785c-.686 0-1.368.26-1.887.78a2.684 2.684 0 0 0 0 3.788 2.657 2.657 0 0 0 1.887.785 2.65 2.65 0 0 0 1.888-.785 2.681 2.681 0 0 0 .004-3.783zm-.678 2.257a.113.113 0 0 1-.02.065.12.12 0 0 1-.106.061h-.6v.602c0 .07-.057.127-.126.127h-.723a.127.127 0 0 1-.126-.127v-.602h-.6a.127.127 0 0 1-.126-.126v-.724c0-.069.056-.126.126-.126h.6v-.602c0-.07.057-.126.126-.126h.723c.069 0 .125.057.125.126v.602h.601a.12.12 0 0 1 .106.061c.012.02.02.04.02.065v.724z"/></g><defs><clipPath id="prefix__a"><path fill="#fff" d="M0 0h15.923v18H0z"/></clipPath></defs></svg>