<svg width="7" height="25" viewBox="0 0 7 25" fill="none" xmlns="http://www.w3.org/2000/svg">
<g clip-path="url(#clip0)">
<path d="M0.959985 24.2503H6.04163C6.26138 24.2503 6.4375 24.0716 6.4375 23.8523V18.7432C6.4375 18.5223 6.25976 18.3452 6.04163 18.3452H0.959985C0.740238 18.3452 0.564117 18.5239 0.564117 18.7432V23.8506C0.562501 24.0716 0.740238 24.2503 0.959985 24.2503Z" fill="white"/>
<path d="M0.959985 16.4167H6.04163C6.25976 16.4167 6.4375 16.246 6.4375 16.0366V1.13003C6.4375 0.920627 6.25976 0.75 6.04163 0.75H0.959985C0.740238 0.75 0.564117 0.920627 0.564117 1.13003V16.0351C0.562501 16.246 0.740238 16.4167 0.959985 16.4167Z" fill="white"/>
</g>
<defs>
<clipPath id="clip0">
<rect width="5.875" height="23.5" fill="white" transform="matrix(-1 0 0 1 6.4375 0.75)"/>
</clipPath>
</defs>
</svg>
