<svg width="20" height="19" fill="none" xmlns="http://www.w3.org/2000/svg"><g clip-path="url(#prefix__a)" fill="#253138"><path d="M19.45 9.963H12.52a.55.55 0 0 0-.383.944l4.883 4.883a.536.536 0 0 0 .4.173.558.558 0 0 0 .457-.24 8.802 8.802 0 0 0 2.112-5.112.537.537 0 0 0 .012-.099.55.55 0 0 0-.55-.55zM10.426 0a.55.55 0 0 0-.55.55v7.703c0 .303.247.55.55.55h7.704a.55.55 0 0 0 .549-.55A8.82 8.82 0 0 0 10.426 0z"/><path d="M14.66 15.34 8.976 9.655a.536.536 0 0 1-.154-.383V1.247a.55.55 0 0 0-.55-.55C3.655.977 0 4.816 0 9.5c0 4.87 3.95 8.821 8.821 8.821a8.773 8.773 0 0 0 5.803-2.179.557.557 0 0 0 .197-.42.569.569 0 0 0-.16-.382z"/></g><defs><clipPath id="prefix__a"><path fill="#fff" d="M0 0h20v18.321H0z"/></clipPath></defs></svg>