<svg width="12" height="16" fill="none" xmlns="http://www.w3.org/2000/svg"><path d="M5.724 11.561A3.274 3.274 0 0 1 2.46 8.297V4.054A3.274 3.274 0 0 1 5.724.791 3.274 3.274 0 0 1 8.99 4.054v4.243c0 1.787-1.478 3.264-3.265 3.264z" fill="#fff"/><path d="M5.69 13.743c-3.077 0-5.586-2.508-5.586-5.583 0-.258.206-.464.464-.464s.464.206.464.464a4.678 4.678 0 0 0 4.675 4.673 4.678 4.678 0 0 0 4.675-4.673c0-.258.206-.464.464-.464.257 0 .464.206.464.464-.035 3.075-2.544 5.583-5.62 5.583z" fill="#fff"/><path d="M5.69 15.821a.462.462 0 0 1-.464-.464V13.28c0-.258.206-.464.464-.464s.464.206.464.464v2.078a.462.462 0 0 1-.464.464z" fill="#fff"/></svg>