<svg width="18" height="20" fill="none" xmlns="http://www.w3.org/2000/svg"><path d="m11.828 10.805 2 .396c.019.98.83 1.758 1.815 1.739a1.773 1.773 0 0 0 1.739-1.816 1.776 1.776 0 0 0-1.816-1.74 1.776 1.776 0 0 0-1.589 1.059l-2.053-.406a2.91 2.91 0 0 0-.816-2.014l2.656-3.753a2.25 2.25 0 0 0 2.995-1.062A2.25 2.25 0 0 0 15.696.213a2.245 2.245 0 0 0-2.56 3.608l-2.632 3.714a2.917 2.917 0 0 0-3.694.58l-3.454-2.68a1.766 1.766 0 0 0-.753-2.392 1.782 1.782 0 0 0-2.4.759 1.782 1.782 0 0 0 2.66 2.236L6.386 8.77a2.917 2.917 0 0 0 .724 3.497l-2.14 3.024a2.397 2.397 0 0 0-3.293.806 2.397 2.397 0 0 0 .806 3.294 2.397 2.397 0 0 0 3.294-.806 2.393 2.393 0 0 0-.217-2.792l2.197-3.106a2.915 2.915 0 0 0 2.386.053l2.608 3.85a2.02 2.02 0 0 0 .078 2.854c.806.768 2.086.73 2.854-.077a2.021 2.021 0 0 0-.077-2.854 2.027 2.027 0 0 0-2.227-.372l-2.57-3.797a2.897 2.897 0 0 0 1.02-1.54z" fill="#253138"/></svg>