<svg width="20" height="20" fill="none" xmlns="http://www.w3.org/2000/svg"><path d="M9.154 20a3.13 3.13 0 0 0 3.062-2.5H6.092A3.13 3.13 0 0 0 9.154 20zM14.997 9.999h-.01a5.84 5.84 0 0 1-5.833-5.833c0-.884.203-1.72.558-2.471A5.833 5.833 0 0 0 3.322 7.5v2.323c-.001 1.65-.724 3.206-1.991 4.278-.423.36-.61.935-.459 1.496.177.653.822 1.07 1.499 1.07h13.562c.71 0 1.38-.46 1.523-1.156a1.46 1.46 0 0 0-.497-1.427 5.545 5.545 0 0 1-1.962-4.085z" fill="#253138"/><path d="M19.154 4.167a4.167 4.167 0 1 1-8.333 0 4.167 4.167 0 0 1 8.333 0z" fill="#253138"/></svg>