<svg width="14" height="13" viewBox="0 0 14 13" fill="none" xmlns="http://www.w3.org/2000/svg">
<path d="M7.18345 0.53765L7.1835 0.537749M7.18345 0.53765L7.18341 0.537584L7.1835 0.537749M7.18345 0.53765C7.18346 0.537683 7.18348 0.537716 7.1835 0.537749M7.18345 0.53765L7.1835 0.537749M8.94906 4.11507L9.0654 4.35078L9.32553 4.38859L13.0189 4.9253L10.3462 7.53044L10.1579 7.71393L10.2024 7.97303L10.8334 11.6516L7.52993 9.91476L7.29725 9.79243L7.06457 9.91476L3.76105 11.6516L4.39184 7.973L4.43627 7.71394L4.24805 7.53046L1.57555 4.9253L5.26892 4.38858L5.52904 4.35078L5.64537 4.11508L7.29726 0.768243L8.94906 4.11507ZM13.2735 4.96228C13.2734 4.96228 13.2734 4.96227 13.2733 4.96227L13.2735 4.96228ZM13.2031 4.74578L13.203 4.74589C13.203 4.74585 13.2031 4.7458 13.2031 4.74575L13.2031 4.74578ZM3.71761 11.9049C3.71759 11.905 3.71758 11.905 3.71757 11.9051L3.71758 11.905L3.71761 11.9049Z" stroke="white"/>
</svg>
