<svg width="15" height="15" viewBox="0 0 15 15" fill="none" xmlns="http://www.w3.org/2000/svg">
<path d="M3.56792 13.7973C3.56792 13.7974 3.56791 13.7974 3.56791 13.7974M3.56792 13.7973L3.5679 13.7975L3.56791 13.7974M3.56792 13.7973L3.56791 13.7974M3.56792 13.7973L3.56791 13.7974M9.67733 4.88003L9.79367 5.11575L10.0538 5.15355L14.4151 5.78732L11.259 8.86358L11.0708 9.04707L11.1152 9.30617L11.8603 13.6499L7.95948 11.599L7.72681 11.4767L7.49413 11.599L3.5932 13.6499L4.33807 9.30614L4.38249 9.04708L4.19428 8.8636L1.03848 5.78732L5.39976 5.15355L5.65988 5.11575L5.77621 4.88004L7.72682 0.927973L9.67733 4.88003ZM14.5223 5.68282L14.5223 5.68285L14.5223 5.68282ZM7.66059 0.793792L7.66064 0.79389C7.66061 0.793835 7.66059 0.79378 7.66056 0.793726L7.66059 0.793792Z" stroke="#F6483B"/>
</svg>
