<svg width="20" height="20" fill="none" xmlns="http://www.w3.org/2000/svg"><path d="m19.65 12.191-1.888-1.437c.024-.223.044-.48.044-.754 0-.273-.02-.535-.044-.754L19.65 7.81a.891.891 0 0 0 .224-1.149l-1.961-3.308c-.209-.375-.67-.567-1.135-.399l-2.226.871a7.404 7.404 0 0 0-1.336-.754L12.876.766C12.82.328 12.43 0 11.969 0H8.034c-.46 0-.85.328-.906.762L6.787 3.07c-.45.196-.89.446-1.336.754l-2.234-.87c-.417-.157-.919.019-1.127.39L.124 6.656a.878.878 0 0 0 .22 1.153l1.89 1.437A7.569 7.569 0 0 0 2.19 10c0 .23.016.473.044.754l-1.89 1.441a.886.886 0 0 0-.22 1.149l1.962 3.304c.208.372.666.567 1.135.399l2.226-.871c.425.3.875.55 1.336.754l.337 2.3c.056.438.445.77.906.77h3.935c.462 0 .85-.328.907-.762l.34-2.308c.45-.2.887-.446 1.337-.758l2.234.875a.99.99 0 0 0 .337.062.899.899 0 0 0 .79-.453l1.974-3.324a.88.88 0 0 0-.23-1.14zM10 13.332c-1.89 0-3.422-1.496-3.422-3.332 0-1.836 1.537-3.332 3.422-3.332 1.885 0 3.421 1.496 3.421 3.332 0 1.836-1.532 3.332-3.421 3.332z" fill="#253138"/></svg>