<svg width="18" height="17" fill="none" xmlns="http://www.w3.org/2000/svg"><g clip-path="url(#prefix__a)" fill="#fff"><path d="M17.284 9.176h-5.878a.465.465 0 0 0-.466.463c0 .13.058.249.142.332l4.14 4.109a.474.474 0 0 0 .728-.057 7.378 7.378 0 0 0 1.79-4.301.454.454 0 0 0 .01-.083.465.465 0 0 0-.466-.463zM9.632.792a.465.465 0 0 0-.466.463v6.482c0 .255.21.463.466.463h6.532a.465.465 0 0 0 .466-.463c-.23-3.73-3.24-6.716-6.998-6.945z"/><path d="M13.223 13.7 8.402 8.916a.45.45 0 0 1-.13-.322V1.842a.465.465 0 0 0-.467-.463C3.89 1.613.792 4.844.792 8.786c0 4.099 3.35 7.423 7.48 7.423a7.47 7.47 0 0 0 4.92-1.833.467.467 0 0 0 .167-.354.476.476 0 0 0-.136-.322z"/></g><defs><clipPath id="prefix__a"><path fill="#fff" transform="translate(.792 .792)" d="M0 0h16.958v15.417H0z"/></clipPath></defs></svg>