<svg width="20" height="20" fill="none" xmlns="http://www.w3.org/2000/svg"><path d="M18.104 1.873c-2.497-2.497-6.59-2.497-9.11 0a6.467 6.467 0 0 0-1.572 6.543l-7.26 7.26a.665.665 0 0 0-.162.417v3.306c0 .323.254.578.578.578h3.306c.162 0 .301-.07.417-.162l.832-.832a.597.597 0 0 0 .162-.486l-.093-.878 1.226-.116a.592.592 0 0 0 .532-.532l.115-1.225.879.092a.583.583 0 0 0 .462-.139.632.632 0 0 0 .185-.439v-1.087h1.064c.162 0 .3-.069.416-.161l1.503-1.48c2.289.74 4.786.185 6.497-1.526a6.44 6.44 0 0 0 .023-9.133zm-1.642 4.162c-.693.693-1.803.693-2.474 0-.693-.694-.693-1.804 0-2.474.694-.694 1.804-.694 2.474 0 .67.693.67 1.78 0 2.474z" fill="#253138"/></svg>