<svg width="21" height="21" viewBox="0 0 21 21" fill="none" xmlns="http://www.w3.org/2000/svg">
<path d="M20.7062 18.0438L15.6783 12.8496C15.3178 12.477 14.8672 12.3278 14.6719 12.5183C14.476 12.7075 14.0251 12.5586 13.6646 12.186L13.5926 12.1114C15.843 9.15178 15.6246 4.91423 12.9223 2.21195C9.97301 -0.737318 5.19113 -0.737318 2.24223 2.21195C-0.707044 5.16122 -0.707044 9.94243 2.24223 12.8917C4.99053 15.6404 9.32822 15.8245 12.2939 13.4505L12.3255 13.4834C12.6854 13.8561 12.8194 14.3114 12.6229 14.5009C12.4273 14.6904 12.5604 15.146 12.9213 15.518L17.9465 20.7142C18.307 21.0859 18.9011 21.0969 19.2741 20.7361L20.6844 19.3715C21.056 19.0115 21.0661 18.4178 20.7062 18.0438ZM11.2627 11.232C9.23315 13.2619 5.93044 13.2619 3.90118 11.2327C1.87161 9.20312 1.87192 5.90004 3.90118 3.87084C5.93044 1.84128 9.23315 1.84159 11.262 3.87115C13.2919 5.90041 13.2919 9.20281 11.2627 11.232Z" fill="white"/>
</svg>
