<svg width="18" height="22" viewBox="0 0 18 22" fill="none" xmlns="http://www.w3.org/2000/svg">
<path d="M12.2018 0.267506C12.0986 0.160677 11.961 0.100586 11.8097 0.100586H3.05387C1.43752 0.100586 0.103165 1.38921 0.103165 2.95825V19.0359C0.103165 20.605 1.43752 21.8936 3.05387 21.8936H14.9461C16.5625 21.8936 17.8968 20.605 17.8968 19.0359V6.26993C17.8968 6.12972 17.8349 6.00286 17.7386 5.90271L12.2018 0.267506ZM12.3599 1.95673L16.0672 5.72911H13.6599C12.9446 5.72911 12.3668 5.16826 12.3668 4.47388V1.95673H12.3599ZM14.9461 20.8454H3.05387C2.04279 20.8454 1.18991 20.0308 1.18991 19.0359V2.95825C1.18991 1.97676 2.03591 1.15552 3.05387 1.15552H11.2801V4.48056C11.2801 5.7625 12.3462 6.78405 13.6599 6.78405H16.8101V19.0359C16.8101 20.0308 15.9641 20.8454 14.9461 20.8454Z" fill="white"/>
<path d="M14.9461 22H3.05388C1.36874 22 0 20.6713 0 19.0422V2.95781C0 1.32868 1.36874 0 3.05388 0H11.8166C11.9885 0 12.1605 0.0734446 12.2843 0.200303L17.8143 5.83551C17.9381 5.96904 18 6.12261 18 6.27618V19.0422C18 20.6713 16.6313 22 14.9461 22ZM3.05388 0.200303C1.48567 0.200303 0.206343 1.43551 0.206343 2.95781V19.0355C0.206343 20.5578 1.48567 21.793 3.05388 21.793H14.9461C16.5143 21.793 17.7937 20.5578 17.7937 19.0355V6.2695C17.7937 6.16935 17.7455 6.05584 17.663 5.96904L12.133 0.340516C12.0504 0.253718 11.9335 0.200303 11.8166 0.200303H3.05388ZM14.9461 20.9451H3.05388C1.98777 20.9451 1.08674 20.0704 1.08674 19.0355V2.95781C1.08674 1.92291 1.98777 1.05493 3.05388 1.05493H11.3833V4.48012C11.3833 5.6953 12.4081 6.68346 13.6599 6.68346H16.9133V19.0355C16.9133 20.0904 16.0329 20.9451 14.9461 20.9451ZM3.05388 1.25524C2.09782 1.25524 1.29308 2.03642 1.29308 2.95781V19.0355C1.29308 19.9636 2.09782 20.7448 3.05388 20.7448H14.9461C15.9159 20.7448 16.7069 19.9769 16.7069 19.0355V6.88376H13.6599C12.2912 6.88376 11.1769 5.80212 11.1769 4.48012V1.25524H3.05388ZM16.308 5.83551H13.6599C12.8896 5.83551 12.2637 5.22792 12.2637 4.48012V1.70926L16.308 5.83551ZM12.4631 2.21002V4.48012C12.4631 5.11442 12.9996 5.6352 13.653 5.6352H15.8196L12.4631 2.21002Z" fill="white"/>
<path d="M9.73938 15.5041C9.94572 15.2971 10.1452 15.0768 10.3515 14.8765C10.9637 14.2755 11.5758 13.6813 12.1949 13.0871C12.4631 12.8267 12.8276 12.8133 13.0684 13.0403C13.316 13.274 13.3229 13.6279 13.0546 13.8883C12.1398 14.783 11.225 15.6843 10.2896 16.559C9.58806 17.2133 8.52883 17.22 7.83414 16.559C6.89872 15.6843 5.99081 14.783 5.06914 13.8883C4.80089 13.6279 4.80777 13.2673 5.04851 13.0403C5.29612 12.8133 5.65378 12.82 5.92202 13.0871C6.67862 13.8148 7.42833 14.5493 8.18492 15.2837C8.2537 15.3505 8.32936 15.4173 8.46005 15.5375C8.46005 15.3705 8.46005 15.2704 8.46005 15.1636C8.46005 10.6501 8.46005 13.9083 8.46005 9.39481C8.46005 9.28799 8.46005 9.17448 8.46692 9.06765C8.49444 8.7672 8.74205 8.54686 9.04469 8.54019C9.34044 8.53351 9.60181 8.75384 9.64308 9.04762C9.65684 9.14777 9.64996 9.24793 9.64996 9.34808C9.64996 13.8749 9.64996 10.6434 9.64996 15.1702C9.64996 15.2704 9.64996 15.3705 9.64996 15.464C9.69123 15.4774 9.71874 15.4907 9.73938 15.5041Z" fill="white"/>
<path d="M4.70461 13.4475V13.4408C4.70461 13.2472 4.78714 13.0603 4.93846 12.9201C5.25485 12.6263 5.72256 12.6463 6.05959 12.9668C6.57545 13.4609 7.09131 13.9683 7.59341 14.4557C7.82727 14.6827 8.06112 14.9097 8.30186 15.1434V13.9349C8.30186 9.83538 8.30186 13.4943 8.30186 9.39471V9.33462C8.30186 9.24115 8.30186 9.14767 8.30873 9.0542C8.34312 8.67362 8.6664 8.37984 9.05157 8.37316C9.44362 8.36649 9.77377 8.64691 9.82879 9.02749C9.84255 9.11429 9.84255 9.20108 9.83567 9.28121C9.83567 9.30124 9.83567 9.32794 9.83567 9.34797C9.83567 13.4275 9.83567 9.73523 9.83567 13.8147V15.1635C9.95948 15.0299 10.0902 14.8964 10.2277 14.7628C10.8811 14.1219 11.4864 13.5343 12.0711 12.9735C12.4081 12.653 12.8758 12.633 13.1922 12.9267C13.3435 13.0736 13.4329 13.2606 13.4329 13.4542C13.4329 13.6545 13.3435 13.8548 13.1784 14.015L12.6901 14.4891C11.9473 15.2169 11.1838 15.9647 10.4134 16.6858C9.64309 17.4069 8.48069 17.4135 7.71034 16.6924C6.89872 15.9313 6.09398 15.1434 5.30988 14.3756L4.94534 14.015C4.79402 13.8548 4.70461 13.6545 4.70461 13.4475ZM8.64576 13.9282V15.9246L8.35 15.6509C8.30186 15.6108 8.26746 15.5774 8.23307 15.544C8.17117 15.4839 8.12302 15.4439 8.07488 15.3971C7.83414 15.1635 7.58653 14.9231 7.3458 14.6894C6.8437 14.202 6.32784 13.6946 5.81198 13.2072C5.61252 13.0135 5.35803 13.0002 5.17919 13.1671C5.09666 13.2405 5.04851 13.3407 5.04851 13.4475C5.04163 13.5677 5.10354 13.6812 5.19983 13.7747L5.56437 14.1352C6.34159 14.8964 7.14633 15.6842 7.95795 16.4454C8.59074 17.0396 9.53991 17.033 10.1727 16.4454C10.943 15.7243 11.7065 14.9765 12.4425 14.2487L12.9308 13.7747C13.0271 13.6745 13.0821 13.5677 13.0821 13.4542C13.0821 13.3474 13.034 13.2472 12.9446 13.1671C12.7657 13.0002 12.5113 13.0202 12.3118 13.2072C11.7272 13.7747 11.1219 14.3556 10.4685 14.9965C10.324 15.1367 10.1865 15.2836 10.0489 15.4238C9.98699 15.4906 9.92509 15.5574 9.85631 15.6242L9.76001 15.7243L9.48489 15.5574V13.8081C9.48489 9.72855 9.48489 13.4208 9.48489 9.3413C9.48489 9.32127 9.48489 9.29456 9.48489 9.26785C9.48489 9.19441 9.48489 9.12764 9.47801 9.06087C9.4505 8.85389 9.26479 8.69365 9.05157 8.70033C8.83835 8.707 8.66639 8.86057 8.64576 9.07423C8.63888 9.15435 8.63888 9.23447 8.63888 9.32127V9.38804C8.64576 13.4876 8.64576 9.8287 8.64576 13.9282Z" fill="white"/>
</svg>
