<svg width="25" height="25" viewBox="0 0 25 25" fill="none" xmlns="http://www.w3.org/2000/svg">
<g clip-path="url(#clip0)">
<path d="M24.7813 7.26996L18.0105 0.23879C17.7896 0.00972013 17.451 -0.0621862 17.1564 0.0564496C16.8605 0.17623 16.6667 0.46271 16.6667 0.781425V4.16693H16.4064C10.8065 4.16693 6.25024 8.72315 6.25024 14.3231V15.8855C6.25024 16.2479 6.50544 16.5501 6.85849 16.6325C6.9159 16.647 6.97312 16.6532 7.03034 16.6532C7.32522 16.6532 7.6075 16.4803 7.74387 16.2085C9.20851 13.2782 12.1532 11.4585 15.4293 11.4585H16.6667V14.8438C16.6667 15.1627 16.8605 15.4492 17.1564 15.5678C17.4491 15.6876 17.7896 15.6147 18.0105 15.3854L24.7813 8.35428C25.0729 8.0512 25.0729 7.57418 24.7813 7.26996Z" fill="white"/>
<path d="M21.8751 25H3.12527C1.40238 25 0.000305176 23.5981 0.000305176 21.875V7.29196C0.000305176 5.56907 1.40238 4.16699 3.12527 4.16699H6.25024C6.82625 4.16699 7.29183 4.63257 7.29183 5.20858C7.29183 5.7846 6.82625 6.25018 6.25024 6.25018H3.12527C2.55021 6.25018 2.08349 6.7169 2.08349 7.29196V21.875C2.08349 22.4501 2.55021 22.9168 3.12527 22.9168H21.8751C22.4499 22.9168 22.9167 22.4501 22.9167 21.875V13.5419C22.9167 12.9659 23.3823 12.5001 23.9583 12.5001C24.5345 12.5001 25 12.9659 25 13.5419V21.875C25 23.5981 23.598 25 21.8751 25Z" fill="white"/>
</g>
<defs>
<clipPath id="clip0">
<rect width="25" height="25" fill="white"/>
</clipPath>
</defs>
</svg>
