<svg width="30" height="36" viewBox="0 0 30 36" fill="none" xmlns="http://www.w3.org/2000/svg">
<path d="M19.9747 0.429418C19.8058 0.257716 19.5806 0.161133 19.3329 0.161133H4.9993C2.35327 0.161133 0.168884 2.2323 0.168884 4.75418V30.5954C0.168884 33.1173 2.35327 35.1885 4.9993 35.1885H24.4673C27.1134 35.1885 29.2978 33.1173 29.2978 30.5954V10.077C29.2978 9.8516 29.1964 9.6477 29.0388 9.48673L19.9747 0.429418ZM20.2337 3.14447L26.3027 9.20771H22.3618C21.1908 9.20771 20.2449 8.30627 20.2449 7.19021V3.14447H20.2337ZM24.4673 33.5036H4.9993C3.34412 33.5036 1.94792 32.1944 1.94792 30.5954V4.75418C1.94792 3.17666 3.33286 1.8567 4.9993 1.8567H18.4659V7.20094C18.4659 9.26137 20.2112 10.9033 22.3618 10.9033H27.5187V30.5954C27.5187 32.1944 26.1338 33.5036 24.4673 33.5036Z" fill="white"/>
<path d="M24.4674 35.36H4.99931C2.24068 35.36 0 33.2245 0 30.606V4.75402C0 2.13555 2.24068 0 4.99931 0H19.3442C19.6257 0 19.9072 0.118046 20.1098 0.321942L29.1627 9.37925C29.3653 9.59388 29.4667 9.8407 29.4667 10.0875V30.606C29.4667 33.2245 27.226 35.36 24.4674 35.36ZM4.99931 0.321942C2.4321 0.321942 0.337791 2.30725 0.337791 4.75402V30.5953C0.337791 33.042 2.4321 35.0273 4.99931 35.0273H24.4674C27.0346 35.0273 29.1289 33.042 29.1289 30.5953V10.0768C29.1289 9.91582 29.0501 9.73339 28.9149 9.59388L19.8621 0.547302C19.727 0.407794 19.5356 0.321942 19.3442 0.321942H4.99931ZM24.4674 33.6644H4.99931C3.25406 33.6644 1.77903 32.2586 1.77903 30.5953V4.75402C1.77903 3.09065 3.25406 1.69556 4.99931 1.69556H18.6348V7.20078C18.6348 9.15389 20.3125 10.7421 22.3618 10.7421H27.6876V30.5953C27.6876 32.2908 26.2464 33.6644 24.4674 33.6644ZM4.99931 2.01751C3.43421 2.01751 2.11683 3.27308 2.11683 4.75402V30.5953C2.11683 32.0869 3.43421 33.3425 4.99931 33.3425H24.4674C26.055 33.3425 27.3498 32.1084 27.3498 30.5953V11.0641H22.3618C20.1211 11.0641 18.297 9.3256 18.297 7.20078V2.01751H4.99931ZM26.6968 9.37925H22.3618C21.1007 9.37925 20.0761 8.4027 20.0761 7.20078V2.74724L26.6968 9.37925ZM20.4026 3.5521V7.20078C20.4026 8.22026 21.2809 9.05731 22.3505 9.05731H25.8973L20.4026 3.5521Z" fill="white"/>
<path d="M15.9437 24.9187C16.2815 24.586 16.608 24.2319 16.9458 23.9099C17.9479 22.9441 18.9501 21.989 19.9634 21.0339C20.4026 20.6154 20.9993 20.5939 21.3934 20.9588C21.7988 21.3344 21.81 21.9032 21.3709 22.3217C19.8734 23.7597 18.3758 25.2084 16.8445 26.6142C15.696 27.6659 13.962 27.6767 12.8248 26.6142C11.2935 25.2084 9.80717 23.7597 8.29837 22.3217C7.85924 21.9032 7.8705 21.3237 8.26459 20.9588C8.66994 20.5939 9.25544 20.6047 9.69457 21.0339C10.9331 22.2036 12.1605 23.3841 13.399 24.5645C13.5116 24.6719 13.6355 24.7792 13.8494 24.9723C13.8494 24.7041 13.8494 24.5431 13.8494 24.3714C13.8494 17.117 13.8494 22.3539 13.8494 15.0994C13.8494 14.9277 13.8494 14.7453 13.8607 14.5736C13.9057 14.0907 14.3111 13.7366 14.8065 13.7258C15.2907 13.7151 15.7185 14.0692 15.7861 14.5414C15.8086 14.7024 15.7973 14.8634 15.7973 15.0243C15.7973 22.3002 15.7973 17.1062 15.7973 24.3821C15.7973 24.5431 15.7973 24.7041 15.7973 24.8543C15.8649 24.8758 15.9099 24.8972 15.9437 24.9187Z" fill="white"/>
<path d="M7.7016 21.6131V21.6024C7.7016 21.2911 7.83672 20.9907 8.08443 20.7653C8.60238 20.2931 9.36804 20.3253 9.91976 20.8404C10.7642 21.6346 11.6087 22.4501 12.4307 23.2335C12.8135 23.5984 13.1963 23.9633 13.5904 24.3389V22.3965C13.5904 15.8074 13.5904 21.6882 13.5904 15.0991V15.0025C13.5904 14.8523 13.5904 14.7021 13.6017 14.5518C13.658 13.9401 14.1872 13.468 14.8177 13.4572C15.4595 13.4465 16 13.8972 16.0901 14.5089C16.1126 14.6484 16.1126 14.7879 16.1013 14.9167C16.1013 14.9489 16.1013 14.9918 16.1013 15.024C16.1013 21.5809 16.1013 15.6464 16.1013 22.2033V24.3711C16.304 24.1564 16.518 23.9418 16.7432 23.7272C17.8128 22.697 18.8037 21.7526 19.7608 20.8512C20.3125 20.3361 21.0781 20.3039 21.5961 20.776C21.8438 21.0121 21.9902 21.3126 21.9902 21.6238C21.9902 21.9458 21.8438 22.2677 21.5736 22.5253L20.7741 23.2872C19.5581 24.4569 18.3083 25.6588 17.0472 26.8178C15.7861 27.9768 13.8832 27.9875 12.6221 26.8286C11.2934 25.6052 9.97606 24.3389 8.69245 23.1048L8.09569 22.5253C7.84798 22.2677 7.7016 21.9458 7.7016 21.6131ZM14.1534 22.3858V25.5944L13.6692 25.1545C13.5904 25.0901 13.5341 25.0364 13.4778 24.9828C13.3765 24.8862 13.2977 24.8218 13.2189 24.7467C12.8248 24.3711 12.4194 23.9847 12.0253 23.6091C11.2034 22.8257 10.3589 22.0102 9.51441 21.2268C9.18788 20.9156 8.77127 20.8941 8.47852 21.1624C8.3434 21.2804 8.26459 21.4414 8.26459 21.6131C8.25333 21.8063 8.35466 21.9887 8.5123 22.1389L9.10906 22.7184C10.3814 23.9418 11.6988 25.2081 13.0274 26.4315C14.0633 27.3866 15.6172 27.3759 16.6531 26.4315C17.9142 25.2725 19.164 24.0706 20.3688 22.9009L21.1682 22.1389C21.3259 21.978 21.4159 21.8063 21.4159 21.6238C21.4159 21.4521 21.3371 21.2911 21.1907 21.1624C20.898 20.8941 20.4814 20.9263 20.1548 21.2268C19.1978 22.1389 18.2069 23.0726 17.1372 24.1028C16.9008 24.3281 16.6756 24.5642 16.4504 24.7896C16.3491 24.8969 16.2477 25.0042 16.1351 25.1115L15.9775 25.2725L15.5271 25.0042V22.1926C15.5271 15.6357 15.5271 21.5702 15.5271 15.0133C15.5271 14.9811 15.5271 14.9382 15.5271 14.8952C15.5271 14.7772 15.5271 14.6699 15.5158 14.5626C15.4708 14.2299 15.1668 13.9723 14.8177 13.9831C14.4687 13.9938 14.1872 14.2406 14.1534 14.584C14.1422 14.7128 14.1422 14.8416 14.1422 14.9811V15.0884C14.1534 21.6775 14.1534 15.7967 14.1534 22.3858Z" fill="white"/>
</svg>
