<svg width="18" height="22" viewBox="0 0 18 22" fill="none" xmlns="http://www.w3.org/2000/svg">
<path d="M12.2018 0.267017C12.0986 0.160189 11.961 0.100098 11.8097 0.100098H3.05387C1.43752 0.100098 0.103165 1.38872 0.103165 2.95776V19.0355C0.103165 20.6045 1.43752 21.8931 3.05387 21.8931H14.9461C16.5625 21.8931 17.8968 20.6045 17.8968 19.0355V6.26945C17.8968 6.12923 17.8349 6.00237 17.7386 5.90222L12.2018 0.267017ZM12.3599 1.95624L16.0672 5.72863H13.6599C12.9446 5.72863 12.3668 5.16778 12.3668 4.47339V1.95624H12.3599ZM14.9461 20.8449H3.05387C2.04279 20.8449 1.18991 20.0303 1.18991 19.0355V2.95776C1.18991 1.97627 2.03591 1.15503 3.05387 1.15503H11.2801V4.48007C11.2801 5.76201 12.3462 6.78356 13.6599 6.78356H16.8101V19.0355C16.8101 20.0303 15.9641 20.8449 14.9461 20.8449Z" fill="white"/>
<path d="M14.9461 22H3.05388C1.36874 22 0 20.6713 0 19.0422V2.95781C0 1.32868 1.36874 0 3.05388 0H11.8166C11.9885 0 12.1605 0.0734446 12.2843 0.200303L17.8143 5.83551C17.9381 5.96904 18 6.12261 18 6.27618V19.0422C18 20.6713 16.6313 22 14.9461 22ZM3.05388 0.200303C1.48567 0.200303 0.206343 1.43551 0.206343 2.95781V19.0355C0.206343 20.5578 1.48567 21.793 3.05388 21.793H14.9461C16.5143 21.793 17.7937 20.5578 17.7937 19.0355V6.2695C17.7937 6.16935 17.7455 6.05584 17.663 5.96904L12.133 0.340516C12.0504 0.253718 11.9335 0.200303 11.8166 0.200303H3.05388ZM14.9461 20.9451H3.05388C1.98777 20.9451 1.08674 20.0704 1.08674 19.0355V2.95781C1.08674 1.92291 1.98777 1.05493 3.05388 1.05493H11.3833V4.48012C11.3833 5.6953 12.4081 6.68346 13.6599 6.68346H16.9133V19.0355C16.9133 20.0904 16.0329 20.9451 14.9461 20.9451ZM3.05388 1.25524C2.09782 1.25524 1.29308 2.03642 1.29308 2.95781V19.0355C1.29308 19.9636 2.09782 20.7448 3.05388 20.7448H14.9461C15.9159 20.7448 16.7069 19.9769 16.7069 19.0355V6.88376H13.6599C12.2912 6.88376 11.1769 5.80212 11.1769 4.48012V1.25524H3.05388ZM16.308 5.83551H13.6599C12.8896 5.83551 12.2637 5.22792 12.2637 4.48012V1.70926L16.308 5.83551ZM12.4631 2.21002V4.48012C12.4631 5.11442 12.9996 5.6352 13.653 5.6352H15.8196L12.4631 2.21002Z" fill="white"/>
<path d="M9.73938 15.5036C9.94572 15.2966 10.1452 15.0763 10.3515 14.876C10.9637 14.2751 11.5758 13.6808 12.1949 13.0866C12.4631 12.8262 12.8276 12.8128 13.0684 13.0399C13.316 13.2735 13.3229 13.6274 13.0546 13.8878C12.1398 14.7825 11.225 15.6839 10.2896 16.5585C9.58806 17.2128 8.52883 17.2195 7.83414 16.5585C6.89872 15.6839 5.99081 14.7825 5.06914 13.8878C4.80089 13.6274 4.80777 13.2669 5.04851 13.0399C5.29612 12.8128 5.65378 12.8195 5.92202 13.0866C6.67862 13.8144 7.42833 14.5488 8.18492 15.2832C8.2537 15.35 8.32936 15.4168 8.46005 15.537C8.46005 15.37 8.46005 15.2699 8.46005 15.1631C8.46005 10.6496 8.46005 13.9078 8.46005 9.39433C8.46005 9.2875 8.46005 9.17399 8.46692 9.06716C8.49444 8.76671 8.74205 8.54638 9.04469 8.5397C9.34044 8.53302 9.60181 8.75336 9.64308 9.04713C9.65684 9.14729 9.64996 9.24744 9.64996 9.34759C9.64996 13.8744 9.64996 10.6429 9.64996 15.1697C9.64996 15.2699 9.64996 15.37 9.64996 15.4635C9.69123 15.4769 9.71874 15.4902 9.73938 15.5036Z" fill="white"/>
<path d="M4.70461 13.447V13.4404C4.70461 13.2467 4.78714 13.0598 4.93846 12.9196C5.25485 12.6258 5.72256 12.6458 6.05959 12.9663C6.57545 13.4604 7.09131 13.9678 7.59341 14.4552C7.82727 14.6822 8.06112 14.9092 8.30186 15.1429V13.9344C8.30186 9.83489 8.30186 13.4938 8.30186 9.39422V9.33413C8.30186 9.24066 8.30186 9.14718 8.30873 9.05371C8.34312 8.67313 8.6664 8.37935 9.05157 8.37268C9.44362 8.366 9.77377 8.64642 9.82879 9.027C9.84255 9.1138 9.84255 9.2006 9.83567 9.28072C9.83567 9.30075 9.83567 9.32746 9.83567 9.34749C9.83567 13.427 9.83567 9.73474 9.83567 13.8143V15.163C9.95948 15.0294 10.0902 14.8959 10.2277 14.7624C10.8811 14.1214 11.4864 13.5338 12.0711 12.973C12.4081 12.6525 12.8758 12.6325 13.1922 12.9262C13.3435 13.0731 13.4329 13.2601 13.4329 13.4537C13.4329 13.654 13.3435 13.8543 13.1784 14.0146L12.6901 14.4886C11.9473 15.2164 11.1838 15.9642 10.4134 16.6853C9.64309 17.4064 8.48069 17.413 7.71034 16.6919C6.89872 15.9308 6.09398 15.1429 5.30988 14.3751L4.94534 14.0146C4.79402 13.8543 4.70461 13.654 4.70461 13.447ZM8.64576 13.9278V15.9241L8.35 15.6504C8.30186 15.6103 8.26746 15.5769 8.23307 15.5435C8.17117 15.4834 8.12302 15.4434 8.07488 15.3967C7.83414 15.163 7.58653 14.9226 7.3458 14.6889C6.8437 14.2015 6.32784 13.6941 5.81198 13.2067C5.61252 13.013 5.35803 12.9997 5.17919 13.1666C5.09666 13.24 5.04851 13.3402 5.04851 13.447C5.04163 13.5672 5.10354 13.6807 5.19983 13.7742L5.56437 14.1347C6.34159 14.8959 7.14633 15.6838 7.95795 16.4449C8.59074 17.0391 9.53991 17.0325 10.1727 16.4449C10.943 15.7238 11.7065 14.976 12.4425 14.2482L12.9308 13.7742C13.0271 13.674 13.0821 13.5672 13.0821 13.4537C13.0821 13.3469 13.034 13.2467 12.9446 13.1666C12.7657 12.9997 12.5113 13.0197 12.3118 13.2067C11.7272 13.7742 11.1219 14.3551 10.4685 14.996C10.324 15.1363 10.1865 15.2831 10.0489 15.4234C9.98699 15.4901 9.92509 15.5569 9.85631 15.6237L9.76001 15.7238L9.48489 15.5569V13.8076C9.48489 9.72806 9.48489 13.4203 9.48489 9.34081C9.48489 9.32078 9.48489 9.29407 9.48489 9.26736C9.48489 9.19392 9.48489 9.12715 9.47801 9.06038C9.4505 8.8534 9.26479 8.69316 9.05157 8.69984C8.83835 8.70651 8.66639 8.86008 8.64576 9.07374C8.63888 9.15386 8.63888 9.23398 8.63888 9.32078V9.38755C8.64576 13.4871 8.64576 9.82821 8.64576 13.9278Z" fill="white"/>
</svg>
