<svg width="25" height="25" viewBox="0 0 25 25" fill="none" xmlns="http://www.w3.org/2000/svg">
<g clip-path="url(#clip0)">
<path d="M16.2506 21.8748H21.9V16.2271C21.9 15.9185 22.1491 15.6665 22.4593 15.6665H23.6907C23.9986 15.6665 24.25 15.9162 24.25 16.2271V23.6694C24.25 23.9803 24.0009 24.23 23.6907 24.23H16.2506C15.9427 24.23 15.6913 23.9803 15.6913 23.6694V22.4353C15.6936 22.1244 15.9427 21.8748 16.2506 21.8748Z" fill="white"/>
<path d="M8.7494 3.08569H3.1V8.73341C3.1 9.04194 2.8509 9.29395 2.5407 9.29395H1.3093C0.9991 9.29395 0.75 9.04194 0.75 8.73341V1.29104C0.75 0.982515 0.9991 0.730511 1.3093 0.730511H8.7494C9.05725 0.730511 9.3087 0.98016 9.3087 1.29104V2.52516C9.30635 2.83369 9.05725 3.08569 8.7494 3.08569Z" fill="white"/>
</g>
<g clip-path="url(#clip1)">
<path d="M21.8948 8.72976L21.8948 3.08036L16.2471 3.08036C15.9386 3.08036 15.6866 2.83126 15.6866 2.52106L15.6866 1.28966C15.6866 0.981809 15.9362 0.730358 16.2471 0.730358L23.6895 0.730358C24.0004 0.730358 24.25 0.979458 24.25 1.28966L24.25 8.72976C24.25 9.03761 24.0004 9.28906 23.6895 9.28906L22.4554 9.28906C22.1445 9.28671 21.8948 9.03761 21.8948 8.72976Z" fill="white"/>
<path d="M3.10539 16.2306L3.10539 21.88L8.75311 21.88C9.06164 21.88 9.31364 22.1291 9.31364 22.4393L9.31364 23.6707C9.31364 23.9809 9.06164 24.23 8.75311 24.23L1.31074 24.23C1.00221 24.23 0.75021 23.9809 0.75021 23.6707L0.750209 16.2306C0.750209 15.9227 0.999858 15.6713 1.31074 15.6713L2.54486 15.6713C2.85339 15.6736 3.10539 15.9227 3.10539 16.2306Z" fill="white"/>
</g>
<defs>
<clipPath id="clip0">
<rect width="23.5" height="23.5" fill="white" transform="matrix(1 0 0 -1 0.75 24.23)"/>
</clipPath>
<clipPath id="clip1">
<rect width="23.5" height="23.5" fill="white" transform="matrix(-4.37114e-08 -1 -1 4.37114e-08 24.25 24.23)"/>
</clipPath>
</defs>
</svg>
