<svg width="30" height="30" viewBox="0 0 30 30" fill="none" xmlns="http://www.w3.org/2000/svg">
<g clip-path="url(#clip0)">
<path d="M7.50003 22.5001C3.36402 18.3641 3.36402 11.636 7.50003 7.50003C11.636 3.36402 18.3641 3.36402 22.5001 7.50003C26.6361 11.636 26.6361 18.3641 22.5001 22.5001C18.3641 26.6361 11.636 26.6361 7.50003 22.5001ZM21.5176 8.48257C17.9243 4.88929 12.0758 4.88929 8.48257 8.48257C4.88929 12.0758 4.88929 17.9243 8.48257 21.5176C12.0758 25.1108 17.9243 25.1108 21.5176 21.5176C25.1108 17.9243 25.1108 12.0758 21.5176 8.48257Z" fill="white"/>
<path d="M11.4161 18.5839C11.1307 18.2985 11.1307 17.8399 11.4161 17.5545L17.5546 11.416C17.84 11.1306 18.2986 11.1306 18.584 11.416C18.8694 11.7014 18.8694 12.16 18.584 12.4454L12.4455 18.5839C12.1601 18.8693 11.7015 18.8693 11.4161 18.5839Z" fill="white"/>
<path d="M17.5547 18.5839L11.4162 12.4454C11.1308 12.16 11.1308 11.7014 11.4162 11.416C11.7016 11.1306 12.1601 11.1306 12.4455 11.416L18.584 17.5545C18.8694 17.84 18.8694 18.2985 18.584 18.5839C18.2986 18.8693 17.8401 18.8693 17.5547 18.5839Z" fill="white"/>
</g>
<defs>
<clipPath id="clip0">
<rect width="21.2133" height="21.2133" fill="white" transform="translate(15.0001) rotate(45)"/>
</clipPath>
</defs>
</svg>
