<svg width="19" height="19" fill="none" xmlns="http://www.w3.org/2000/svg"><path d="m18.094 11.524-1.689-1.296c.024-.195.049-.44.049-.685 0-.244-.024-.489-.049-.684l1.69-1.296a.794.794 0 0 0 .195-1.028l-1.763-2.983a.843.843 0 0 0-1.028-.367l-2.007.782a8.397 8.397 0 0 0-1.2-.684l-.318-2.08a.798.798 0 0 0-.808-.684h-3.55a.798.798 0 0 0-.808.685L6.49 3.283a5.393 5.393 0 0 0-1.2.684l-2.007-.782c-.367-.147-.832.024-1.003.342L.517 6.511a.769.769 0 0 0 .196 1.027l1.689 1.296c-.025.245-.049.465-.049.685 0 .196.024.416.049.685L.712 11.5a.795.795 0 0 0-.195 1.027l1.763 2.96c.195.342.587.513 1.028.366l2.007-.782c.392.269.784.489 1.2.684l.293 2.08a.798.798 0 0 0 .808.684h3.55a.798.798 0 0 0 .808-.685l.318-2.079a5.393 5.393 0 0 0 1.2-.684l2.007.782c.098.025.196.05.294.05a.794.794 0 0 0 .71-.417l1.763-2.983c.22-.318.147-.734-.172-.979zm-8.69 1.028c-1.69 0-3.085-1.345-3.085-2.984s1.37-2.984 3.084-2.984 3.085 1.345 3.085 2.984-1.395 2.984-3.085 2.984z" fill="#fff"/></svg>